<svg height="704pt" preserveAspectRatio="xMidYMid meet" viewBox="0 0 742 704" width="742pt" xmlns="http://www.w3.org/2000/svg"><g transform="matrix(.1 0 0 -.1 0 704)"><path d="m3633 6187c-128-94-201-281-208-534l-3-135-67-34c-201-103-347-262-407-444-10-30-25-100-33-155-12-87-12-113 1-200 24-162 69-287 162-448 12-21 22-41 22-46 0-4-19-14-42-22-24-7-52-18-63-24-31-16-99-68-113-87-19-25-30-23-128 26-161 80-295 117-443 123-84 4-113 1-145-13-262-113-391-200-461-309-42-65-72-179-56-217 8-22 17-28 39-28 49 0 91 29 209 144 142 138 195 171 278 171 71 0 79-3 310-116 99-48 202-96 230-107 56-22 57-23 79-115 9-38 23-84 32-102 9-19 13-38 10-43-3-6-36-10-73-11-130-1-244-39-386-128-61-39-74-43-130-43-98 0-290-19-301-30-6-6-20-10-33-10s-31-4-41-10c-9-5-34-17-55-26-43-19-194-174-260-267-63-88-94-155-111-236-29-138 23-267 90-223 14 9 94 123 94 133 0 8 25 66 78 178 32 69 86 129 137 152 40 18 165 27 165 12 0-5-14-28-30-53-82-120-184-372-224-550-22-96-23-98-76-127-192-108-290-206-333-333-73-220-93-381-61-504 40-156 146-249 190-164 13 26 16 58 13 182-6 283-1 311 65 377 47 47 145 105 156 92 4-4 13-37 20-73 60-300 199-463 470-552 41-14 102-30 136-37 75-14 266-14 336-1 91 18 183 43 192 52 6 4 16 8 24 8 22 0 213 96 267 134 28 19 66 46 85 59 20 14 73 59 118 102l82 77 34-26c19-14 37-26 41-26 10 0 148-105 178-136 71-71 78-139 32-294s-53-244-19-257c39-15 137 68 169 143 30 72 45 165 45 277 0 139-17 219-59 288-38 63-126 160-193 214-27 20-48 43-48 51 0 7 13 37 29 66 29 53 78 170 100 240 11 35 22 85 37 180 4 21 9 38 13 38 3 0 40-19 81-41 155-85 194-136 192-254 0-38-6-86-12-105-18-58-25-227-10-245 19-23 46-18 84 16 77 67 106 148 106 294 0 167-33 314-86 387-62 84-226 210-351 271-35 16-63 36-63 43 0 8-4 22-9 32-5 9-19 36-30 59-36 74-44 87-96 151-19 24-35 48-35 53 0 4 24 24 53 42 65 42 126 104 152 154 11 21 24 41 29 44 4 4 36-6 70-21 33-15 108-44 166-63 219-73 265-98 302-170 20-37 23-63 28-212 6-185 16-225 56-225 25 0 65 42 93 99 49 96 33 265-45 467-28 74-44 100-87 141-103 101-286 190-474 233l-52 12-6 56c-4 32-11 70-17 85s-8 30-5 34c4 3 71 5 149 4 244-2 426 48 600 166 189 129 290 284 347 536 16 68 14 260-4 343-8 39-16 80-18 90-2 11-7 26-10 34s-13 38-23 65c-21 60-88 189-115 223-10 14-19 32-19 41 0 22 85 128 161 199 67 63 233 183 280 202 43 18 35 30-21 30-96 0-227-47-315-114-22-17-79-68-126-114l-87-84-78 60c-166 126-361 193-564 192-88-1-278-21-364-40-27-5-52-8-55-5-11 12-13 193-1 259 15 91 46 212 76 300 13 39 22 71 20 73-1 1-16-7-33-20zm177-703c267-106 362-419 196-647-80-110-191-168-326-170-138-3-232 36-327 135-153 159-148 423 11 578 73 71 118 96 221 124 39 10 180-3 225-20zm835-314c61-28 127-94 155-156 18-38 23-67 23-129 0-97-24-157-88-221-59-58-114-84-194-91-136-11-250 50-310 168-28 55-33 75-33 139-1 62 3 85 27 134 43 91 117 153 208 177 52 13 161 2 212-21z"/><path d="m3582 5249c-78-39-112-110-98-204 9-59 65-116 131-135 91-25 189 21 220 105 35 91-1 195-81 234-50 25-123 25-172 0z"/><path d="m4444 5004c-33-16-74-82-74-118 0-42 37-103 74-120 126-60 252 63 188 183-34 63-120 89-188 55z"/></g></svg>